<?xml version="1.0" standalone="no"?>
<!DOCTYPE svg PUBLIC "-//W3C//DTD SVG 20010904//EN"
 "http://www.w3.org/TR/2001/REC-SVG-20010904/DTD/svg10.dtd">
<svg version="1.0" xmlns="http://www.w3.org/2000/svg"
 width="400.000000pt" height="410.000000pt" viewBox="0 0 400.000000 410.000000"
 preserveAspectRatio="xMidYMid meet">

<g transform="translate(0.000000,410.000000) scale(0.100000,-0.100000)"
fill="#000000" stroke="none">
<path d="M1742 3934 c-634 -87 -1173 -472 -1460 -1041 -125 -247 -188 -495
-199 -783 -12 -336 51 -626 204 -930 187 -372 469 -654 843 -843 213 -108 400
-164 636 -192 724 -85 1423 244 1826 860 322 491 393 1134 188 1694 -101 274
-257 510 -478 722 -279 267 -609 432 -1007 505 -123 22 -419 27 -553 8z m533
-137 c276 -51 529 -156 736 -304 318 -227 550 -542 668 -907 63 -193 83 -325
83 -546 1 -220 -19 -351 -83 -546 -156 -481 -507 -871 -969 -1079 -613 -276
-1338 -174 -1860 260 -579 482 -793 1285 -529 1983 235 619 777 1053 1437
1147 119 18 402 13 517 -8z"/>
<path d="M1795 3700 c-258 -29 -559 -142 -768 -290 -392 -276 -645 -693 -708
-1167 -17 -129 -6 -422 20 -545 110 -508 437 -935 893 -1164 254 -128 501
-180 803 -171 198 6 304 23 470 77 543 177 960 622 1100 1174 132 521 12 1069
-325 1481 -124 152 -317 312 -490 408 -145 80 -337 147 -520 182 -101 19 -363
27 -475 15z m200 -200 c0 -10 -8 -14 -27 -12 -38 5 -64 -36 -52 -81 8 -28 15
-32 47 -35 43 -4 51 -28 11 -38 -37 -10 -73 11 -90 52 -29 68 11 137 76 132
23 -2 35 -8 35 -18z m75 -70 c0 -83 -1 -90 -20 -90 -19 0 -20 7 -20 90 0 83 1
90 20 90 19 0 20 -7 20 -90z m113 80 c17 0 27 -5 27 -15 0 -10 -10 -15 -29
-15 -20 0 -30 -6 -34 -20 -4 -17 0 -20 24 -20 22 0 29 -5 29 -20 0 -16 -5 -19
-30 -13 -27 5 -30 3 -30 -21 0 -22 4 -26 31 -26 23 0 30 -4 27 -17 -3 -14 -12
-17 -48 -14 -25 1 -46 4 -48 6 -2 2 0 45 4 95 6 87 8 91 28 86 11 -3 33 -6 49
-6z m107 -20 c14 -7 21 -26 26 -70 8 -70 19 -70 29 0 7 52 20 69 37 52 6 -6 4
-30 -5 -68 -8 -33 -18 -71 -21 -86 -4 -20 -11 -25 -25 -21 -14 4 -22 22 -33
76 l-14 72 -15 -63 c-15 -70 -35 -80 -32 -17 2 44 22 135 30 135 2 0 13 -5 23
-10z m-574 -95 c17 -60 20 -81 11 -87 -15 -10 -37 -10 -37 0 0 4 -18 27 -40
52 l-40 45 15 -50 c19 -65 19 -77 -2 -73 -13 2 -23 23 -35 73 -22 93 -22 105
0 105 11 0 36 -24 60 -56 46 -62 49 -61 27 10 -19 62 -19 68 1 64 11 -2 24
-29 40 -83z m-256 38 c0 -14 3 -24 6 -20 12 12 61 -15 77 -42 37 -63 10 -141
-48 -141 -60 0 -115 123 -71 160 8 6 12 18 9 26 -7 18 3 44 17 44 5 0 10 -12
10 -27z m1065 -5 c14 -6 25 -15 25 -19 0 -15 -20 -20 -40 -9 -43 23 -94 -45
-69 -92 5 -10 21 -21 34 -24 28 -7 34 -34 8 -34 -10 0 -33 9 -50 20 -30 18
-33 25 -33 66 0 37 5 51 29 75 32 31 55 36 96 17z m89 -36 c7 -11 -60 -166
-73 -170 -23 -8 -20 24 10 98 30 73 49 94 63 72z m-1225 -109 c35 -67 39 -79
27 -92 -12 -12 -20 -2 -56 68 -37 76 -43 101 -20 101 5 0 27 -35 49 -77z m399
35 c-4 -46 -28 -49 -28 -4 0 26 4 36 16 36 11 0 14 -8 12 -32z m948 -3 c-3 -8
-10 -42 -16 -77 -6 -35 -13 -71 -16 -80 -8 -27 -34 -9 -34 23 0 39 -34 58 -61
33 -15 -14 -22 -15 -32 -5 -9 10 3 25 58 76 57 51 73 61 88 53 10 -5 16 -16
13 -23z m-1446 -5 c0 -6 -12 -22 -27 -34 -28 -24 -28 -24 -11 -60 21 -43 59
-57 88 -31 18 17 20 17 26 1 17 -44 -86 -63 -124 -23 -27 29 -43 72 -35 94 15
44 83 87 83 53z m1586 -112 l-6 -39 31 16 c31 16 59 14 59 -4 0 -5 -21 -17
-46 -27 -25 -9 -58 -33 -74 -52 -15 -19 -33 -31 -39 -28 -16 10 -14 23 8 54
11 15 25 53 31 85 10 50 14 56 27 46 11 -10 13 -24 9 -51z m-1685 -40 c71 -46
78 -53 65 -67 -14 -13 -17 -13 -33 1 -16 15 -20 15 -38 2 -13 -9 -20 -26 -20
-46 0 -61 -23 -39 -53 51 -22 64 -27 92 -19 100 6 6 13 11 15 11 2 0 39 -23
83 -52z m822 -23 l16 -35 35 21 34 20 -5 -39 -5 -39 43 -7 44 -7 -34 -30 -33
-31 26 -27 c34 -36 33 -41 -10 -41 l-37 0 7 -40 c7 -43 2 -47 -28 -25 -30 23
-42 18 -58 -22 l-15 -38 -18 38 c-20 40 -31 45 -61 22 -28 -22 -34 -18 -27 16
7 34 -6 49 -44 49 -30 0 -29 8 5 43 l27 29 -27 23 c-16 13 -28 26 -28 29 0 3
16 8 35 12 34 6 35 8 29 40 -7 38 -4 40 35 19 32 -16 43 -10 55 33 10 31 20
28 39 -13z m-1008 -57 c-31 -24 -32 -54 -3 -85 24 -26 60 -30 77 -9 14 17 -9
39 -32 30 -25 -9 -28 12 -4 34 l23 22 34 -35 c31 -32 32 -35 17 -58 -8 -13
-30 -30 -47 -37 -28 -12 -36 -11 -64 4 -35 19 -66 63 -66 94 0 11 14 34 30 52
25 27 33 30 45 20 13 -11 11 -15 -10 -32z m2095 -32 c15 -17 20 -31 15 -43 -6
-17 -8 -16 -22 5 -20 28 -60 29 -90 0 -29 -27 -29 -52 -2 -79 29 -29 9 -51
-22 -23 -47 42 -43 98 9 141 36 31 82 30 112 -1z m-2147 -107 c70 -58 70 -59
58 -78 -7 -11 -24 -2 -78 45 -62 53 -81 84 -52 84 6 0 38 -23 72 -51z m2217
18 c-1 -7 -23 -29 -50 -50 -50 -38 -67 -77 -33 -77 9 0 41 19 70 42 44 34 56
39 64 27 10 -16 -43 -68 -99 -95 -30 -14 -35 -14 -57 0 -31 20 -42 60 -24 83
8 9 36 34 62 55 47 36 68 41 67 15z m-2315 -27 c4 -6 2 -17 -4 -24 -9 -10 3
-23 49 -55 33 -23 60 -46 60 -51 0 -25 -27 -18 -81 20 -53 37 -62 40 -72 26
-7 -9 -17 -12 -24 -8 -9 6 -3 21 20 55 33 48 41 54 52 37z m2415 -114 c0 -7
-27 -28 -60 -47 -42 -24 -58 -38 -54 -49 24 -60 0 -72 -30 -15 -23 42 -23 42
65 95 61 38 79 42 79 16z m-2497 -12 c3 -4 -1 -17 -10 -30 -13 -21 -14 -24 0
-30 8 -3 29 2 46 11 56 28 105 -19 76 -74 -19 -38 -30 -44 -44 -27 -9 10 -8
16 4 26 17 14 20 36 6 45 -5 3 -26 -2 -45 -12 -66 -31 -111 16 -70 75 15 22
26 27 37 16z m725 -133 l112 -92 83 40 c192 92 396 92 581 0 49 -24 83 -36 90
-30 6 4 63 50 126 100 l115 91 7 -37 c4 -21 7 -189 7 -373 l1 -335 415 3 415
2 0 -77 c0 -148 -48 -368 -115 -522 -176 -411 -545 -728 -972 -835 -57 -15
-129 -29 -160 -32 l-58 -6 -37 53 c-20 30 -54 82 -76 116 l-40 63 -70 -113
c-62 -100 -73 -112 -101 -115 -41 -4 -258 49 -357 88 -431 171 -761 545 -875
995 -29 116 -57 340 -46 369 6 15 42 16 404 16 l398 -1 5 368 c3 202 7 370 8
372 2 4 0 6 140 -108z m1831 43 c15 -33 19 -50 12 -57 -8 -8 -15 -6 -23 6 -12
15 -18 14 -76 -13 -59 -29 -82 -31 -82 -9 0 5 29 24 65 41 58 29 65 36 60 55
-10 42 20 25 44 -23z m-2625 -40 c-1 -5 -5 -19 -8 -30 -5 -15 -1 -24 11 -28
10 -4 19 -3 21 2 7 23 30 44 40 38 8 -5 8 -14 0 -32 -10 -20 -9 -27 3 -35 22
-14 28 -11 41 16 6 14 15 25 19 25 19 0 18 -22 -1 -59 l-20 -40 -77 35 c-43
20 -80 38 -82 40 -8 8 33 84 43 81 6 -3 10 -8 10 -13z m2674 -66 c2 -11 -12
-21 -50 -33 -29 -10 -61 -25 -71 -33 -16 -14 -16 -17 -3 -30 13 -13 22 -13 73
7 77 29 78 29 78 7 0 -15 -16 -24 -66 -42 -80 -26 -109 -18 -120 33 -8 39 9
57 84 89 58 24 71 25 75 2z m-2660 -96 c39 -27 62 -51 62 -63 0 -17 -8 -19
-95 -19 -90 0 -95 1 -95 21 0 21 3 22 70 16 39 -3 70 -4 70 -3 0 2 -25 19 -55
37 -52 31 -64 47 -49 62 8 8 12 6 92 -51z m2727 -100 c5 -25 2 -38 -11 -53
-18 -20 -49 -25 -59 -9 -4 6 -21 0 -43 -15 -43 -30 -52 -31 -52 -7 0 9 14 25
30 34 43 25 39 41 -9 33 -30 -5 -40 -3 -44 9 -5 11 2 18 21 22 15 3 54 14 87
23 65 19 68 18 80 -37z m-2780 -31 c66 -14 81 -21 83 -38 3 -18 -6 -22 -70
-35 l-73 -15 63 -13 c37 -9 62 -19 62 -27 0 -16 -25 -16 -110 1 -49 9 -66 16
-68 30 -5 25 11 33 81 41 67 8 61 20 -15 30 -38 6 -48 11 -48 26 0 22 -6 22
95 0z m2725 -100 c113 -23 115 -40 10 -93 -41 -21 -80 -38 -87 -38 -21 0 -15
28 8 40 28 16 23 64 -8 68 -15 2 -23 10 -23 23 0 10 3 19 8 18 4 0 45 -8 92
-18z m-2697 -77 c19 -4 27 -12 27 -25 0 -15 -5 -19 -17 -15 -10 2 -51 8 -90
11 -64 6 -73 9 -73 27 0 19 5 19 63 13 34 -3 74 -8 90 -11z"/>
<path d="M1452 3378 c-16 -16 -15 -31 5 -72 19 -41 41 -52 61 -32 12 12 12 21
3 47 -11 32 -38 69 -51 69 -3 0 -11 -5 -18 -12z"/>
<path d="M2672 3277 c-22 -23 -20 -37 4 -37 10 0 27 50 20 57 -2 2 -12 -8 -24
-20z"/>
<path d="M1125 3149 c14 -46 19 -50 38 -36 17 11 16 14 -13 36 l-32 23 7 -23z"/>
<path d="M1969 3065 c-63 -34 -58 -124 7 -151 57 -24 72 -17 34 14 -28 24 -34
36 -34 67 0 30 6 43 30 61 25 21 26 24 9 24 -11 -1 -32 -7 -46 -15z"/>
<path d="M1410 2475 l0 -197 41 37 c50 44 127 81 190 90 106 15 237 -44 309
-139 l34 -47 25 33 c42 55 93 98 151 126 110 54 258 28 359 -63 l41 -37 0 196
c0 179 -5 218 -25 186 -3 -5 -44 -39 -91 -76 l-84 -66 -93 46 c-204 101 -360
101 -565 0 l-92 -46 -76 59 c-41 32 -86 66 -100 76 l-24 19 0 -197z"/>
<path d="M1557 2326 c-66 -33 -101 -69 -127 -128 -49 -114 -32 -224 47 -309
132 -141 360 -108 451 66 53 101 30 238 -55 320 -53 52 -98 69 -188 72 -68 3
-87 0 -128 -21z m192 -111 c43 -22 78 -69 86 -115 5 -32 2 -50 -17 -87 -30
-62 -65 -85 -130 -91 -44 -3 -59 0 -87 20 -51 34 -73 71 -78 125 -7 90 62 163
155 163 24 0 56 -7 71 -15z"/>
<path d="M1612 2155 c-38 -32 -48 -72 -28 -118 15 -37 59 -67 96 -67 31 0 76
29 89 57 49 107 -69 202 -157 128z"/>
<path d="M2183 2334 c-51 -18 -114 -78 -144 -136 -33 -62 -33 -176 -1 -238 32
-61 68 -97 126 -127 105 -53 229 -37 314 40 67 62 86 107 86 202 1 71 -2 86
-30 135 -35 62 -96 114 -152 130 -52 14 -149 11 -199 -6z m187 -122 c50 -26
84 -97 76 -157 -22 -142 -204 -184 -284 -65 -20 30 -23 45 -20 97 3 53 9 68
33 94 17 17 39 35 50 39 35 15 109 11 145 -8z"/>
<path d="M2231 2164 c-62 -44 -58 -132 9 -177 70 -48 172 23 156 109 -14 69
-107 108 -165 68z"/>
<path d="M600 1925 c0 -36 4 -65 10 -65 25 0 110 96 110 125 0 3 -27 5 -60 5
l-60 0 0 -65z"/>
<path d="M766 1955 c-24 -56 -63 -101 -111 -126 -43 -23 -45 -26 -39 -59 14
-85 18 -86 102 -30 65 44 100 84 136 157 45 92 45 93 -18 93 -54 0 -56 -1 -70
-35z"/>
<path d="M944 1973 c-3 -10 -21 -50 -40 -89 -47 -99 -110 -166 -193 -207 l-68
-32 20 -62 19 -61 41 14 c99 35 199 115 262 210 36 54 87 166 99 217 l6 27
-70 0 c-58 0 -72 -3 -76 -17z"/>
<path d="M1132 1951 c-7 -21 -12 -41 -12 -45 0 -3 52 -6 115 -6 l115 0 0 45 0
45 -103 0 -104 0 -11 -39z"/>
<path d="M2620 1940 l0 -50 120 0 c66 0 120 1 120 3 0 1 -6 22 -14 47 l-13 45
-107 3 -106 3 0 -51z"/>
<path d="M2890 1981 c0 -5 8 -36 19 -69 47 -154 161 -292 292 -356 42 -21 85
-36 94 -34 12 2 25 23 37 57 10 30 17 55 15 56 -1 1 -32 16 -69 33 -106 48
-188 144 -230 267 l-17 50 -70 3 c-41 2 -71 -1 -71 -7z"/>
<path d="M3080 1986 c0 -2 9 -25 20 -51 34 -80 88 -151 143 -189 50 -34 114
-63 122 -54 2 2 7 26 10 54 l7 50 -41 19 c-51 23 -114 90 -130 138 l-13 37
-59 0 c-32 0 -59 -2 -59 -4z"/>
<path d="M3250 1983 c2 -31 102 -133 130 -133 9 0 20 61 20 108 l0 32 -75 0
c-41 0 -75 -3 -75 -7z"/>
<path d="M1946 1881 l-38 -51 37 -65 c20 -36 37 -65 39 -65 2 0 20 28 41 62
40 68 40 72 -14 137 l-27 33 -38 -51z"/>
<path d="M2518 1836 c-20 -17 -58 -42 -84 -56 -65 -32 -184 -37 -269 -10 -32
11 -60 18 -60 17 -15 -31 -118 -181 -123 -179 -4 1 -30 39 -58 85 -37 59 -57
81 -70 80 -11 -1 -59 -7 -109 -12 -106 -12 -150 -4 -238 42 -103 53 -97 54
-97 -6 l0 -52 83 -45 c115 -63 247 -195 303 -305 53 -102 83 -228 91 -390 l6
-125 92 0 92 0 6 138 c5 138 18 208 59 312 60 154 199 303 362 388 59 31 60
32 63 78 4 70 -5 78 -49 40z"/>
<path d="M1088 1825 c-10 -22 -8 -32 10 -63 l21 -37 115 -3 116 -3 0 66 0 65
-125 0 c-125 0 -126 0 -137 -25z"/>
<path d="M2620 1780 l0 -60 119 0 119 0 22 36 c19 29 21 40 11 60 -10 24 -13
24 -141 24 l-130 0 0 -60z"/>
<path d="M1013 1699 l-32 -49 28 -63 c75 -167 61 -343 -36 -456 l-36 -43 46
-46 c53 -53 46 -56 112 45 60 90 78 147 81 258 4 118 -9 174 -64 289 -60 123
-61 123 -99 65z"/>
<path d="M2911 1718 c-73 -117 -111 -238 -111 -355 0 -131 31 -222 110 -322
l42 -53 45 44 45 45 -35 46 c-83 109 -105 261 -58 402 13 39 30 80 37 92 13
21 11 27 -18 72 -18 28 -35 50 -38 50 -3 1 -11 -9 -19 -21z"/>
<path d="M1173 1620 l22 -50 78 0 77 0 0 50 0 50 -99 0 -100 0 22 -50z"/>
<path d="M1406 1624 c-36 -263 56 -520 226 -637 54 -38 186 -93 196 -82 13 13
4 233 -12 290 -45 155 -116 276 -217 369 -56 53 -145 106 -175 106 -6 0 -14
-21 -18 -46z"/>
<path d="M2461 1633 c-193 -114 -330 -365 -331 -604 0 -37 3 -80 6 -97 6 -29
9 -31 38 -25 69 13 141 57 213 129 58 59 81 92 122 176 27 57 54 128 60 158
26 130 8 300 -32 300 -7 0 -41 -17 -76 -37z"/>
<path d="M2620 1615 l0 -55 80 0 80 0 14 33 c34 83 39 77 -73 77 l-101 0 0
-55z"/>
<path d="M897 1576 l-37 -33 19 -44 c40 -93 36 -169 -14 -243 l-25 -37 34 -45
34 -45 26 34 c14 18 36 55 48 83 42 90 23 271 -35 346 -11 15 -16 13 -50 -16z"/>
<path d="M3012 1553 c-56 -133 -48 -269 20 -375 l41 -63 37 44 38 44 -31 44
c-42 59 -50 160 -18 240 l20 52 -38 30 c-22 17 -41 31 -44 31 -2 0 -14 -21
-25 -47z"/>
<path d="M755 1497 c-27 -12 -52 -22 -54 -23 -5 -4 103 -204 111 -204 17 0 38
63 38 114 0 52 -24 137 -39 135 -3 -1 -28 -11 -56 -22z"/>
<path d="M1214 1503 c3 -10 8 -35 12 -55 l6 -38 59 0 59 0 0 55 0 55 -71 0
c-62 0 -70 -2 -65 -17z"/>
<path d="M2620 1455 l0 -55 65 0 c62 0 65 1 65 24 0 13 3 38 6 55 l7 31 -72 0
-71 0 0 -55z"/>
<path d="M3151 1483 c-25 -54 -26 -135 -2 -189 21 -46 23 -48 37 -30 19 26
107 197 102 200 -4 3 -119 46 -122 46 -2 0 -8 -12 -15 -27z"/>
<path d="M1230 1321 c0 -25 6 -31 33 -40 19 -7 55 -25 82 -42 47 -30 48 -30
41 -7 -4 13 -12 44 -18 71 l-11 47 -64 0 c-63 0 -63 0 -63 -29z"/>
<path d="M2604 1323 c-3 -15 -12 -47 -19 -70 -8 -24 -12 -43 -10 -43 2 0 30
16 62 35 31 19 70 37 86 41 23 5 28 10 25 32 -3 26 -6 27 -70 30 -67 3 -67 3
-74 -25z"/>
<path d="M1216 1228 c-18 -62 -44 -115 -90 -185 l-54 -83 34 -29 c85 -75 273
-186 389 -230 91 -34 221 -68 279 -73 l39 -3 67 100 68 100 -71 11 c-186 30
-248 68 -431 263 -72 76 -221 160 -230 129z m39 -140 c26 -12 82 -104 70 -116
-12 -13 -91 0 -108 17 -20 19 -48 91 -40 103 7 12 49 9 78 -4z m168 -26 c12
-11 17 -30 17 -74 0 -57 -1 -59 -22 -53 -58 18 -81 71 -62 142 5 19 9 21 28
11 11 -6 29 -17 39 -26z m95 -98 c18 -12 22 -25 22 -65 0 -57 -16 -64 -56 -24
-21 21 -24 31 -19 58 12 53 17 56 53 31z m-142 -33 c23 -10 44 -24 48 -29 9
-16 -99 -65 -127 -58 -26 6 -77 43 -77 55 0 9 87 50 105 50 6 1 29 -8 51 -18z
m254 -41 c26 -26 28 -90 3 -90 -30 0 -53 31 -53 72 0 44 18 50 50 18z m105
-55 c17 -17 25 -35 25 -60 0 -33 -2 -36 -22 -29 -38 11 -58 35 -58 69 0 52 17
58 55 20z m-213 -1 l31 -16 -29 -23 c-40 -33 -68 -38 -109 -21 -43 18 -44 28
-2 55 39 25 68 26 109 5z m310 -41 c19 -17 25 -83 8 -83 -20 0 -62 50 -56 66
3 9 6 20 6 25 0 14 22 11 42 -8z m-196 -18 c18 -15 18 -16 -11 -40 -16 -14
-42 -25 -56 -25 -29 0 -81 38 -63 46 6 3 20 11 30 19 25 19 75 19 100 0z m137
-59 c17 -13 16 -15 -9 -35 -31 -25 -72 -27 -100 -6 -19 14 -18 15 6 35 29 23
77 25 103 6z"/>
<path d="M2665 1203 c-54 -28 -96 -62 -185 -152 -94 -95 -129 -123 -190 -154
-77 -38 -173 -67 -222 -67 -15 0 -28 -2 -28 -5 0 -11 131 -205 139 -205 75 0
312 75 448 142 95 46 283 172 283 189 0 4 -20 31 -44 59 -40 47 -106 183 -106
218 0 19 -19 14 -95 -25z m124 -112 c13 -8 13 -15 1 -51 -17 -53 -52 -80 -101
-80 -21 0 -40 4 -43 8 -2 4 8 30 22 57 20 38 36 53 62 62 43 15 42 15 59 4z
m-165 -46 c8 -49 -2 -75 -36 -99 -40 -29 -53 -21 -56 34 -2 45 1 54 27 80 42
42 57 39 65 -15z m-119 -104 c8 -46 -6 -78 -38 -90 -25 -10 -35 5 -36 52 -1
27 37 77 58 77 5 0 12 -18 16 -39z m216 -22 l41 -20 -23 -25 c-31 -33 -81 -41
-130 -19 -60 27 -65 39 -27 64 42 26 88 27 139 0z m-321 -47 c0 -41 -20 -68
-55 -74 -18 -3 -20 2 -17 37 2 26 10 46 23 58 34 28 49 22 49 -21z m-110 -61
c0 -40 -25 -71 -57 -71 -21 0 -16 67 7 90 33 33 50 26 50 -19z m266 17 c24
-12 44 -25 44 -30 0 -12 -56 -38 -81 -38 -24 0 -89 39 -89 53 0 8 56 36 74 37
5 0 28 -10 52 -22z m-367 -87 c-18 -33 -59 -42 -59 -12 0 57 45 98 64 58 7
-13 5 -27 -5 -46z m253 28 l42 -21 -23 -19 c-30 -25 -76 -24 -112 2 -31 22
-30 35 5 49 32 13 43 12 88 -11z m-141 -56 c37 -22 37 -30 -5 -50 -33 -15 -36
-15 -70 6 -42 26 -44 34 -13 49 32 16 55 14 88 -5z"/>
<path d="M3373 2412 c-17 -11 1 -35 23 -30 11 2 19 10 19 18 0 17 -24 24 -42
12z"/>
<path d="M3367 2231 c4 -17 8 -18 31 -8 46 19 47 27 5 27 -36 0 -40 -3 -36
-19z"/>
</g>
</svg>
