<?xml version="1.0" encoding="utf-8"?>
<!-- Generator: Adobe Illustrator 24.3.0, SVG Export Plug-In . SVG Version: 6.00 Build 0)  -->
<svg version="1.1" id="Capa_1" xmlns="http://www.w3.org/2000/svg" xmlns:xlink="http://www.w3.org/1999/xlink" x="0px" y="0px"
	 viewBox="0 0 160 160" style="enable-background:new 0 0 160 160;" xml:space="preserve">
<style type="text/css">
	.st0{fill:#00A8BF;}
	.st1{opacity:0.61;}
	.st2{opacity:0.3;fill:#0D0E0D;enable-background:new    ;}
	.st3{opacity:0.84;}
	.st4{fill:#FFFFFF;}
	.st5{fill:#100505;}
	.st6{fill:#A3C7EB;}
	.st7{fill:#F2AF79;}
	.st8{fill:#E52322;}
	.st9{fill:#1D1D1B;}
</style>
<g id="_x23_ec008cff">
	<path class="st0" d="M75.7,0h1.9c-0.2,0.5-0.6,1.5-0.8,2C76.6,1.5,76,0.5,75.7,0z"/>
	<path class="st0" d="M59.2,2.2C59.8,2.8,59.8,2.8,59.2,2.2z"/>
	<path class="st0" d="M76.6,3.3c1.7,0.5,2.1,2.3,2.7,3.7C77.2,7.6,74.4,4.9,76.6,3.3z"/>
	<path class="st0" d="M65.8,6.6c1.3-1.8,2.3,1.1,3.4,1.8c-0.3,0.9-0.6,1.8-0.9,2.8c1.7-0.2,2.9,0.5,3.7,2c-0.6,1.4-1.4,2.6-2.3,3.9
		c2.4,0.8,0.9,3.4,0.6,5c4-1.2,8.1-1.9,12.3-2.3c0.1-1.5,0-3,0.6-4.5c2.2-3.7,8.2-4.8,11.1-1.4c1.8,2.5,1,5.8-0.5,8.1
		c5.4,3.5,5.8,10.6,6.5,16.4c4.6,0,8.4,4.2,8.3,8.7c-0.4,3.7-4.5,5.1-6.6,7.8c0.6,0.5,1.8,1.5,2.4,2c0,2.1,0,4.2,0,6.3
		c2.5-0.1,3.3,1.8,2.8,3.9c-1.3-0.2-2.6-0.5-3.7-1.2c-1.1,1.6-2.4,3-4.1,3.9c-1.2,0.1-2.5,0.2-3.7,0.3c0-2.5-0.2-5-1.2-7.2
		c-2.4-5.6-4.9-11.2-7.2-16.8c-0.9-2-1.6-4.2-3.2-5.8c-2.1-0.3-5.1-0.6-5.7,2c-3.2,7.3-6.5,14.6-9.4,22.1c-3.9-3.8-7.5-7.9-11.1-12
		C53.9,48.1,54.9,42.1,55,37c0.1-5.5,4.1-10,8.6-12.6c0-0.7-0.2-1.9-0.2-2.6c0.2,0.5,0.6,1.6,0.8,2.1c1.2-0.5,2.5-0.9,3.7-1.4
		c-1.3-0.9-2.6-1.8-3.9-2.7c1.2-1.7,1.3-6,4.7-3.3c-0.3-0.9-0.7-1.9-1-2.8C67.2,11.2,65.7,9.1,65.8,6.6z"/>
	<path class="st0" d="M60.8,8.1C62.4,7.5,63,8,62.5,9.6C60.9,10.2,60.3,9.7,60.8,8.1z"/>
	<path class="st0" d="M60.7,11.1c1.6-0.5,2.1,0,1.6,1.7C60.6,13.3,60.1,12.7,60.7,11.1z"/>
	<path class="st0" d="M77.6,15.4c-1.2-1.7,0.8-3.1,1.8-4.3c1.1,1.1,2.6,2.4,1.3,4C80.2,16.1,78.5,15.2,77.6,15.4z"/>
	<path class="st0" d="M114.5,16.6c0.5,0,1.4,0,1.9,0c0.6,1,0.4,1.8-0.6,2.5C114.4,19.6,113.5,17.5,114.5,16.6z"/>
	<path class="st0" d="M107.3,25.2C107.8,25.9,107.8,25.9,107.3,25.2z"/>
	<path class="st0" d="M41.1,30.2c3.6-4,10.1-1.8,11.7,3c1.9,3.5-1.2,6.6-3,9.4c-2.8,0.1-6,1.1-8.4-1.1c-2.2-2.1-4.8-3.7-6.8-5.9
		c-1.9-2.7,1-5.1,3.3-6C38.7,29.8,40.3,30.1,41.1,30.2z"/>
	<path class="st0" d="M112.4,35.5c2.7-1.4,5.8-0.6,8.7-0.2c2.6,0.7,3.9,3.9,2.2,6.1c-3.1,4-9.4,7-13.9,3.2
		C106.7,41.5,109.2,37.1,112.4,35.5z"/>
	<path class="st0" d="M122.7,50.3c-1.5-0.8-1.5-1.6,0.1-2.4C124.2,48.8,124.2,49.6,122.7,50.3z"/>
	<path class="st0" d="M45.4,49.4c1-1.3,3.1,0.5,2.1,1.7C46.5,52.3,44.4,50.6,45.4,49.4z"/>
	<path class="st0" d="M45.1,52.5c1.4-0.4,1.9,0.1,1.4,1.5C45.1,54.4,44.6,53.9,45.1,52.5z"/>
	<path class="st0" d="M64.5,71c0-2.5,2.4-3.6,4.2-4.8c0,3.9,0,7.8,0,11.7C65.4,77.4,64.4,73.8,64.5,71z"/>
	<path class="st0" d="M48.2,72.2c1.7-0.1,1.5,2.8-0.1,2.6C46.4,74.7,46.6,72.1,48.2,72.2z"/>
	<path class="st0" d="M101.9,74c0.8-3.5,4.9-2.3,7.1-0.9c-0.5,1.5-0.9,2.9-1.1,4.4C105.4,77.3,101.7,77.6,101.9,74z"/>
	<path class="st0" d="M102.6,81.9c-0.3-1.7,0.2-4,2.6-3.5c2.4,0.9,1.7,3.4,1.3,5.4c2.7-2,3.4,2.3,2.6,4c-1-0.6-1.9-1.3-2.8-1.9
		C107.3,83.2,104.3,82.6,102.6,81.9z"/>
	<path class="st0" d="M112.1,79.9c0.3-0.1,1-0.2,1.3-0.3c0.2,1.5,0.4,3.1,0.6,4.6c-0.6-0.1-1.1-0.1-1.7-0.1
		C112.3,82.7,112.2,81.3,112.1,79.9z"/>
	<path class="st0" d="M95.5,79.2c0.9,0.7,1.9,1.4,2.8,2.2c-0.8,1.5-1.7,2.9-2.8,4.2C95.5,83.5,95.5,81.3,95.5,79.2z"/>
	<path class="st0" d="M65.1,87.5C65.8,87.9,65.8,87.9,65.1,87.5z"/>
	<path class="st0" d="M116.3,89.2C116.9,89.9,116.9,89.9,116.3,89.2z"/>
	<path class="st0" d="M99.5,94.8c0-0.2,0.1-0.6,0.1-0.9l0,0.4L99.5,94.8z"/>
</g>
<g id="_x23_0b09094c" class="st1">
	<path class="st2" d="M95.2,6.1C98.2,4.5,95.4,9.4,95.2,6.1z"/>
	<path class="st2" d="M105.4,11.1C108.4,9.6,105.6,14.4,105.4,11.1z"/>
	<path class="st2" d="M114.2,23.1C117.2,21.5,114.4,26.4,114.2,23.1z"/>
	<path class="st2" d="M50.2,24.3C50.8,24.8,50.8,24.8,50.2,24.3z"/>
	<path class="st2" d="M108.1,30.1C111.1,28.5,108.4,33.4,108.1,30.1z"/>
	<path class="st2" d="M120.1,32.4C123.3,32.5,118.5,35.4,120.1,32.4z"/>
	<path class="st2" d="M55.2,53.2C55.8,53.7,55.8,53.7,55.2,53.2z"/>
	<path class="st2" d="M45.2,57.1C48.1,55.5,45.4,60.4,45.2,57.1z"/>
	<path class="st2" d="M56.3,61.3C56.8,61.9,56.8,61.9,56.3,61.3z"/>
	<path class="st2" d="M57.1,66.1C60.4,66.3,55.6,69.2,57.1,66.1z"/>
	<path class="st2" d="M121.3,66.3C121.8,66.8,121.8,66.8,121.3,66.3z"/>
	<path class="st2" d="M49.1,67.2C52.4,67.2,47.7,70.2,49.1,67.2z"/>
	<path class="st2" d="M108.2,69.1c1.7-0.5,2.2,0.1,1.6,1.7C108.1,71.3,107.6,70.7,108.2,69.1z"/>
	<path class="st2" d="M95.6,69.9c1.2-0.1,2.5-0.2,3.7-0.3c0,8.1-0.5,16.2,0.3,24.3c0,0.2-0.1,0.6-0.1,0.9c-0.6,19.7,0,39.5-0.3,59.2
		c0.3,2.9-2.2,4.6-4.3,5.9H77c-1.2-1.2-2.3-2.4-3.4-3.5c5.2,0.1,10.3,0.1,15.5,0c3.8-0.1,6.6-3.7,6.5-7.4c0.1-21.2,0-42.3,0.1-63.4
		c1-1.3,2-2.7,2.8-4.2c-0.9-0.7-1.9-1.4-2.8-2.2C95.5,76.1,95.5,73,95.6,69.9z"/>
	<path class="st2" d="M56,80.2C59.3,80.2,54.6,83.3,56,80.2z"/>
	<path class="st2" d="M72.2,128.7c4.9,0,9.9,0.1,14.8,0c1.4-0.1,2.9,0.2,4.1,0.9c-6.5,0-13,0.5-19.5-0.3L72.2,128.7z"/>
</g>
<g id="_x23_ffffffff" class="st3">
	<path class="st4" d="M78.2,42.1c0.6-2.6,3.6-2.3,5.7-2c1.5,1.6,2.3,3.8,3.2,5.8c2.3,5.7,4.8,11.2,7.2,16.8c1.1,2.3,1.3,4.8,1.2,7.2
		c0,3.1-0.1,6.2-0.1,9.3c0,2.1,0,4.2,0,6.4c-0.1,21.2,0,42.3-0.1,63.4c0.2,3.7-2.7,7.3-6.5,7.4c-5.1,0.2-10.3,0.1-15.5,0
		c-2.7-1-5.3-3.3-4.9-6.4c0-24.1,0-48.1,0-72.2c0-3.9,0-7.8,0-11.7c0-0.7,0.1-1.3,0.2-2C71.8,56.7,75,49.4,78.2,42.1 M81.6,42.9
		c-0.7,1.8-1.4,3.6-2.1,5.4h-0.2c-2.3,6-5,11.9-7.6,17.9c-0.1,20,0,40,0,60c0.2,0.5,0.5,1.6,0.7,2.1l-0.2,0.4l-0.6,0.5
		c0.2,3.3,0.1,6.7,0.1,10c0.1,3.6-0.2,7.1,0.1,10.7c0.3,1.9,2.2,3.1,4,3c4,0.1,8.1,0.1,12.2,0c1.4,0.1,2.7-0.9,3.5-2.1
		c0.5-3.9,0.2-7.8,0.2-11.7c-0.3-3.1,0.6-6.5-0.2-9.4c0.1-0.3,0.3-0.9,0.4-1.2c-0.4-20.8-0.1-41.6-0.1-62.5
		c-2.5-5.9-5.1-11.8-7.5-17.7C83.6,46.4,82.7,44.6,81.6,42.9z"/>
</g>
<g id="_x23_e85836ff">
	<path class="st5" d="M81.6,42.9c1.1,1.7,2,3.5,2.7,5.4c-1.6,0-3.2,0-4.7,0C80.2,46.5,80.8,44.7,81.6,42.9z"/>
	<path class="st6" d="M71.7,139.2c6.7,0,13.3,0.1,20,0c0,3.9,0.3,7.8-0.2,11.7c-0.7,1.2-2,2.1-3.5,2.1c-4.1,0.1-8.1,0.1-12.2,0
		c-1.8,0.1-3.7-1.1-4-3C71.6,146.4,71.8,142.8,71.7,139.2z"/>
</g>
<g id="_x23_f2aa2bff">
	<path class="st7" d="M79.3,48.3h0.2c1.6,0,3.2,0,4.7,0c2.4,6,5,11.8,7.5,17.7c-1.5-1.2-3-2.4-4.4-3.5c-0.7,1.1-1.4,2.3-2.1,3.5
		c-1.2-1.1-2.5-2.3-3.7-3.4c-1,1.1-1.9,2.3-2.9,3.5c-0.8-1.2-1.7-2.3-2.5-3.5c-1.5,1.2-2.9,2.4-4.4,3.6C74.3,60.2,77,54.3,79.3,48.3
		z"/>
</g>
<g id="_x23_06aebbff">
	<path class="st8" d="M71.8,66.2c1.5-1.2,2.9-2.4,4.4-3.6c0.8,1.2,1.7,2.3,2.5,3.5c0,20.6-0.1,41.3,0.1,61.9
		c-2.1,0.2-4.2,0.3-6.3,0.3c-0.2-0.5-0.5-1.6-0.7-2.1C71.8,106.2,71.7,86.2,71.8,66.2z"/>
	<path class="st8" d="M87.3,62.5c1.5,1.2,3,2.3,4.4,3.5c0,20.8-0.2,41.7,0.1,62.5c-2.3-0.3-4.6-0.3-6.9-0.3
		c0.2-20.7-0.3-41.5,0.2-62.2C85.9,64.8,86.6,63.7,87.3,62.5z"/>
</g>
<g id="_x23_5fdddfff">
	<path class="st4" d="M81.5,62.6c1.2,1.1,2.5,2.2,3.7,3.4c-0.6,20.7-0.1,41.5-0.2,62.2c2.3,0,4.6,0,6.9,0.3
		c-0.1,0.3-0.3,0.9-0.4,1.2l-0.4-0.2c-1.3-0.7-2.7-1-4.1-0.9c-4.9,0.1-9.8,0-14.8,0l0.2-0.4c2.1,0,4.2-0.1,6.3-0.3
		c-0.1-20.6-0.1-41.3-0.1-61.9C79.6,64.9,80.5,63.8,81.5,62.6z"/>
</g>
<g id="_x23_ceba9fff">
	<path class="st9" d="M71.6,129.2c6.4,0.9,13,0.3,19.5,0.3l0.4,0.2c0.8,2.9-0.1,6.3,0.2,9.4c-6.7,0.1-13.3,0.1-20,0
		C71.7,135.9,71.8,132.6,71.6,129.2z"/>
</g>
</svg>
